<svg width="210" height="80" viewBox="0 0 210 80" fill="none" xmlns="http://www.w3.org/2000/svg">
<path d="M107.02 50.9151L102.985 57.6875H98.1512L104.463 47.2499L98.3908 37.6487H103.744L107.579 43.7042L111.014 37.6487H115.768L110.096 47.3695L116.647 57.6875H111.294L107.02 50.9151ZM85.6075 45.8554H92.2389V45.4572C92.2389 42.9472 91.5199 40.9951 89.1628 40.9951C86.8859 40.9951 85.7274 42.6684 85.6075 45.8554ZM90.2015 58.0859C84.1294 58.0859 80.6939 54.6997 80.6939 47.7279C80.6939 41.6725 83.4503 37.2503 89.2428 37.2503C93.9967 37.2503 97.0725 39.8796 97.0725 46.8514V49.3614H85.6075C85.8074 52.7078 87.1256 54.3411 90.6009 54.3411C92.918 54.3411 95.3948 53.4647 96.8728 52.4688V56.3332C95.4748 57.2891 93.2377 58.0859 90.2015 58.0859ZM64.9943 47.8077C64.9943 52.3492 66.2729 54.3411 68.8693 54.3411C71.5458 54.3411 72.9041 52.3094 72.9041 47.6483C72.9041 43.027 71.6259 40.9951 69.069 40.9951C66.3526 40.9951 64.9943 43.0668 64.9943 47.8077ZM60.0808 47.8077C60.0808 41.1147 63.2767 37.2503 67.8706 37.2503C69.9479 37.2503 71.7057 38.2065 72.9041 39.9992V29.9996H77.6579V57.6875H73.2637L73.0239 55.0981C71.7455 57.0503 69.908 58.0859 67.6708 58.0859C63.1967 58.0859 60.0808 54.4209 60.0808 47.8077ZM45.6996 57.6875H40.9457V37.6487H45.5797L45.6996 39.322H45.9392C46.8981 38.3659 48.5757 37.3301 51.4121 37.3301C55.2869 37.3301 56.885 39.083 56.885 43.0668V57.6875H52.1312V43.5448C52.1312 42.031 51.3722 41.3139 49.6944 41.3139C47.9766 41.3139 46.5784 42.2302 45.6996 43.3058V57.6875ZM32.317 48.3255H31.6379C27.5631 48.3255 25.9254 49.1622 25.9254 51.5125C25.9254 53.3054 26.924 54.5005 28.9214 54.5005C30.5992 54.5005 31.7177 53.7833 32.317 52.907V48.3255ZM37.0708 52.7874C37.0708 54.4209 37.1507 56.0544 37.3105 57.6875H32.6765C32.5167 57.2891 32.357 56.612 32.317 56.0942H32.1173C31.1984 57.0503 29.9999 57.9665 27.2037 57.9665C23.5284 57.9665 21.0518 55.6958 21.0518 51.6321C21.0518 47.5685 24.2874 45.1783 31.558 45.1783H32.317V44.0627C32.317 41.9114 31.2783 41.1147 29.0014 41.1147C26.5645 41.1147 23.7683 42.1505 22.4897 43.1066V39.1626C23.928 38.3259 26.4046 37.3301 29.5605 37.3301C34.5941 37.3301 37.0708 39.1626 37.0708 44.0229V52.7874Z" fill="black"/>
<path d="M146.276 30H141.048L147.309 57.6791H153.569L159.83 30H154.689L150.482 50.2144L146.276 30Z" fill="black"/>
<path d="M127.818 33.7377H121.277V30H139.158V33.7377H132.618V57.5517H127.818V33.7377Z" fill="black"/>
<path d="M9.34777 57.6924V54.9036C9.34777 51.119 8.90838 49.2467 7.39031 45.9799L0 30.0045H5.11337L11.3852 43.6691C13.2227 47.6531 14.0217 49.7247 14.0217 54.3062V57.6924H9.34777Z" fill="black"/>
<path d="M12.3418 43.3867L18.1742 30.0009H23.0877L17.1755 43.3867H12.3418Z" fill="black"/>
</svg>
