<svg width="210" height="80" viewBox="0 0 210 80" fill="none" xmlns="http://www.w3.org/2000/svg">
<path d="M54.7873 22.4395H51.2897L48.7578 38.4397H51.9727L54.7873 22.4395Z" fill="black"/>
<path d="M3.35795 30.6135C3.35795 27.4074 4.51947 24.9973 7.17313 24.9973C10.1095 24.9973 10.8056 27.4987 10.8056 30.3394V31.8316H14.1553V30.5308C14.1553 26.0718 12.6675 22 7.03827 22C2.70976 22 0.00390625 25.3149 0.00390625 30.6831V38.4483H3.35795V30.6135Z" fill="black"/>
<path d="M0.00347174 48.272C-0.0835334 52.9094 1.44341 57.4162 7.00303 57.4162C12.9977 57.4162 14.3115 52.7832 14.3115 48.2894V45.9794H10.9444V48.4982C10.9444 51.9088 10.1657 54.4363 7.2945 54.4363C4.56689 54.4363 3.36187 52.209 3.36187 48.459V42.5166H0.00782209V48.272H0.00347174Z" fill="black"/>
<path d="M26.9981 25.8109L28.9818 38.4397H32.1009L29.3472 22.4395H24.6533L22.0127 38.4397H25.1666L26.9981 25.8109Z" fill="black"/>
<path d="M18.958 56.9638H22.2773L24.1174 45.527H30.0468L31.8391 56.9638H35.2845L32.8005 42.5166H21.3419L18.958 56.9638Z" fill="black"/>
<path d="M77.3789 56.9638H80.7025L82.5427 45.527H88.4677L90.2644 56.9638H93.7054L91.2214 42.5166H79.7629L77.3789 56.9638Z" fill="black"/>
<path d="M85.4185 25.8109L87.4066 38.4397H90.5214L87.772 22.4395H83.0781L80.4375 38.4397H83.5871L85.4185 25.8109Z" fill="black"/>
<path d="M42.0918 22.4395H38.542L41.3305 38.4397H44.6454L42.0918 22.4395Z" fill="black"/>
<path d="M106.564 42.5166H103.279V56.9638H106.564V42.5166Z" fill="black"/>
<path d="M46.7088 51.3824L45.295 42.5166H42.041L44.5555 56.9638H48.7143L51.2549 42.5166H48.114L46.7088 51.3824Z" fill="black"/>
<path d="M63.0608 25.4803H71.2871V22.4395H59.7764V38.4397H63.0608V25.4803Z" fill="black"/>
<path d="M59.7764 56.9638H71.8701L71.8614 53.9447H63.0608V42.5166H59.7764V56.9638Z" fill="black"/>
<path d="M112.114 25.4803V22.4395H97.6846V25.4803H103.279V38.4397H106.563V25.4803H112.114Z" fill="black"/>
</svg>
