<svg width="180" height="26" viewBox="0 0 180 26" fill="none" xmlns="http://www.w3.org/2000/svg">
<path d="M172.981 14.4165H177.935V10.3409H172.981V4.13636H179.073L180 0H168.266V25.8251H180V21.5704H172.981V14.4165Z" fill="#B6B6B6"/>
<path d="M159.63 0H152.806V25.8251H159.205C163.514 25.8251 166.007 23.498 166.007 18.6999V6.90458C166.007 1.38411 162.402 0 159.63 0ZM161.232 19.3808C161.232 20.9951 160.004 21.8645 158.681 21.8645H157.402V4.13316H159.397C160.142 4.13316 161.232 4.82362 161.232 6.64886V19.3808Z" fill="#B6B6B6"/>
<path d="M140.239 0L135.591 25.8251H140.156L141.009 20.5635H144.634L145.446 25.8251H150.138L145.484 0H140.239ZM141.604 16.3664L142.863 8.64032L144.036 16.3664H141.604Z" fill="#B6B6B6"/>
<path d="M124.28 15.1837H124.264L121.572 0H115V25.8251H119.309L119.306 9.52577L122.685 25.8251H125.897L129.231 9.52577L129.228 25.8251H133.534V0H127.025L124.28 15.1837Z" fill="#B6B6B6"/>
<path d="M105.498 9.42348L102.685 0H98.0693L103.088 15.3851V25.8251H107.704V15.3851L112.722 0H108.11L105.498 9.42348Z" fill="#B6B6B6"/>
<path d="M95.7058 4.13636L96.6328 0H84.9014V25.8251H96.6328V21.5704H89.6131V14.4165H94.5678V10.3409H89.6131V4.13636H95.7058Z" fill="#B6B6B6"/>
<path d="M76.2231 10.6605H72.0228V0H67.1289V25.8251H72.0228V14.9088H76.2231V25.8251H81.1203V0H76.2231V10.6605Z" fill="#B6B6B6"/>
<path d="M51.9492 4.13316H56.3189V25.8219H61.0339V4.13316H64.5053L65.4355 0H51.9492V4.13316Z" fill="#B6B6B6"/>
<path d="M50.2108 21.5664H45.9434V25.821H50.2108V21.5664Z" fill="#B6B6B6"/>
<path d="M39.794 0L37.0674 17.1815L34.2384 0H29.418L34.2384 25.8251H39.8995L42.3097 12.9109L44.7199 0H39.794Z" fill="#B6B6B6"/>
<path d="M20.8097 21.5704V14.4165H25.7643V10.3409H20.8097V4.13636H26.9023L27.8293 0H16.0947V25.8251H27.8293V21.5704H20.8097Z" fill="#B6B6B6"/>
<path d="M6.82467 0H0V25.8251H6.39953C10.7085 25.8251 13.2018 23.498 13.2018 18.6999V6.90458C13.2018 1.38411 9.59609 0 6.82467 0ZM8.42615 19.3808C8.42615 20.9951 7.19867 21.8645 5.87529 21.8645H4.59666V4.13316H6.59132C7.33612 4.13316 8.42615 4.82362 8.42615 6.64886V19.3808Z" fill="#B6B6B6"/>
</svg>
