<svg width="400" height="360" viewBox="0 0 400 360" fill="none" xmlns="http://www.w3.org/2000/svg">
<path d="M96.7207 163.64H103.587V172.463L110.172 163.64H118.416L107.474 174.431L127.981 163.64V171.139L109.983 177.54L127.981 176.077V183.21L109.983 181.747L127.981 188.149V195.648L107.474 184.856L118.416 195.648H110.172L103.587 186.824V195.648H96.7207V163.64Z" fill="white"/>
<path d="M132.149 163.64H140.486V195.648H132.149V163.64Z" fill="white"/>
<path d="M159.523 195.648L150.762 175.938L151.755 195.648H144.647V163.64H152.37L161.13 183.304L160.137 163.64H167.245V195.648H159.523Z" fill="white"/>
<path d="M170.368 179.644C170.368 170.499 175.058 163 183.349 163C191.639 163 196.33 170.499 196.33 179.644C196.33 188.789 191.639 196.288 183.349 196.288C175.058 196.288 170.368 188.789 170.368 179.644ZM183.349 191.167C185.72 191.167 187.471 186.822 187.471 179.644C187.471 172.467 185.72 168.121 183.349 168.121C180.978 168.121 179.227 172.467 179.227 179.644C179.227 186.822 180.984 191.167 183.349 191.167Z" fill="white"/>
<path d="M221.338 173.977C221.338 180.838 216.315 184.724 209.213 184.724H207.697V195.653H199.453V163.646H209.213C216.315 163.64 221.338 166.705 221.338 173.977ZM207.692 169.038V179.508H208.685C211.056 179.508 213.088 177.723 213.088 173.977C213.088 170.23 211.05 169.038 208.685 169.038H207.692Z" fill="white"/>
<path d="M223.089 179.644C223.089 170.499 227.78 163 236.07 163C244.36 163 249.05 170.499 249.05 179.644C249.05 188.789 244.36 196.288 236.07 196.288C227.774 196.288 223.089 188.789 223.089 179.644ZM236.064 191.167C238.435 191.167 240.186 186.822 240.186 179.644C240.186 172.467 238.435 168.121 236.064 168.121C233.693 168.121 231.942 172.467 231.942 179.644C231.942 186.822 233.699 191.167 236.064 191.167Z" fill="white"/>
<path d="M252.168 163.64H260.504V195.648H252.168V163.64Z" fill="white"/>
<path d="M272.394 182.571C266.188 178.868 263.868 176.446 263.868 172.284C263.868 166.752 267.99 163 274.196 163C279.978 163 283.859 165.699 284.996 170.638L285.185 171.463L277.561 172.744C277.136 169.496 275.947 167.988 274.15 167.988C272.537 167.988 271.544 169.041 271.544 170.687C271.544 172.289 272.348 173.658 276.895 176.269C283.147 179.882 285.139 182.216 285.139 186.606C285.139 192.503 280.873 196.299 274.34 196.299C268.656 196.299 264.299 193.783 263.162 188.523L262.973 187.653L270.838 186.234C271.263 189.665 272.497 191.311 274.581 191.311C275.953 191.311 277.234 190.214 277.234 188.246C277.222 186.09 275.758 184.583 272.394 182.571Z" fill="white"/>
<path d="M287.93 163.64H296.266V176.947L302.093 163.64H310.619L301.571 179.142L310.854 195.648H301.617L296.266 182.34V195.648H287.93V163.64Z" fill="white"/>
</svg>
