<svg width="600" height="72" viewBox="0 0 600 72" fill="none" xmlns="http://www.w3.org/2000/svg">
<path d="M580.917 41.0174L575.419 10H562V62.7557H570.802V29.4593L577.698 62.7557H584.261L591.071 29.4593V62.7557H599.867V10H586.572L580.963 41.0174H580.93H580.917Z" fill="black"/>
<path d="M543.625 8.03393C543.253 8.01434 542.443 7.99475 541.849 8.00128C541.307 8.00128 540.504 8.00781 540.177 8.0274C534.15 8.34084 527 11.6711 527 23.301V48.2324C527 59.8623 534.15 63.1926 540.177 63.506C540.504 63.5256 541.307 63.5256 541.849 63.5322C542.437 63.5387 543.253 63.5191 543.625 63.4995C549.626 63.1469 556.679 59.784 556.679 48.2324V23.301C556.679 11.7495 549.633 8.38655 543.625 8.03393ZM546.995 48.905C546.995 50.433 546.603 51.6019 546.022 52.4573C545.656 52.9928 545.238 53.4368 544.768 53.7111C544.35 53.9592 543.867 54.1551 543.344 54.2792C542.953 54.3706 542.502 54.4359 542.052 54.4359C541.999 54.4359 541.673 54.4359 541.621 54.4359C541.17 54.4359 540.719 54.3706 540.328 54.2792C539.805 54.1617 539.316 53.9592 538.904 53.7111C538.434 53.4303 538.016 52.9928 537.65 52.4573C537.076 51.6019 536.677 50.433 536.677 48.905V22.6219C536.677 21.0939 537.069 19.925 537.65 19.0696C538.016 18.5341 538.434 18.0901 538.904 17.8158C539.322 17.5677 539.805 17.3718 540.328 17.2477C540.719 17.1563 541.17 17.091 541.621 17.091C541.673 17.091 541.999 17.091 542.052 17.091C542.502 17.091 542.953 17.1563 543.344 17.2477C543.867 17.3653 544.357 17.5677 544.768 17.8158C545.238 18.0966 545.656 18.5341 546.022 19.0696C546.596 19.925 546.995 21.0939 546.995 22.6219V48.8985V48.905Z" fill="black"/>
<path d="M513.107 49.1575C513.107 50.6855 512.734 51.8544 512.192 52.7098C511.853 53.2453 511.454 53.6893 511.01 53.9636C510.619 54.2117 510.162 54.4076 509.665 54.5317C509.3 54.6231 508.875 54.6884 508.451 54.6884C508.398 54.6884 508.092 54.6884 508.046 54.6884C507.621 54.6884 507.197 54.6231 506.831 54.5317C506.342 54.4141 505.878 54.2117 505.486 53.9636C505.042 53.6828 504.65 53.2453 504.304 52.7098C503.762 51.8544 503.39 50.6855 503.39 49.1575V22.9136C503.39 21.3855 503.762 20.2167 504.304 19.3612C504.644 18.8258 505.042 18.3818 505.486 18.1075C505.878 17.8594 506.335 17.6635 506.831 17.5394C507.197 17.448 507.621 17.3827 508.046 17.3827C508.098 17.3827 508.405 17.3827 508.451 17.3827C508.875 17.3827 509.3 17.448 509.665 17.5394C510.155 17.6569 510.619 17.8594 511.01 18.1075C511.454 18.3883 511.846 18.8258 512.192 19.3612C512.734 20.2167 513.107 21.3855 513.107 22.9136V24.2914C515.993 22.7438 519.813 20.6999 522.523 19.2307C521.145 11.9889 516.28 9.20061 511.605 8.48885C511.161 8.42355 509.815 8.27336 508.451 8.26683C507.008 8.2603 505.545 8.39743 505.114 8.4562C499.537 9.23326 493.602 12.9162 493.602 23.5861V48.4784C493.602 59.1484 499.537 62.8313 505.114 63.6083C505.545 63.6671 507.008 63.8042 508.451 63.7977C509.815 63.7912 511.161 63.6475 511.605 63.5757C517.116 62.7333 522.908 59.0112 522.908 48.4784V47.5511H513.107V49.1575Z" fill="black"/>
<path d="M489.148 53.7354H480.431V62.4267H489.148V53.7354Z" fill="black"/>
<path d="M459.789 53.7352V39.1211H469.91V30.7954H459.789V18.1207H472.235L474.129 9.6709H450.157V62.4266H474.129V53.7352H459.789Z" fill="black"/>
<path d="M432.514 9.6709H418.572V62.4266H431.645C440.448 62.4266 445.541 57.6727 445.541 47.8712V23.7756C445.541 12.4984 438.175 9.6709 432.514 9.6709ZM435.785 49.2621C435.785 52.5598 433.278 54.3359 430.574 54.3359H427.962V18.1142H432.037C433.559 18.1142 435.785 19.5246 435.785 23.2532V49.2556V49.2621Z" fill="black"/>
<path d="M404.271 9.6709H393.555L384.061 62.4266H393.385L395.129 51.6782H402.534L404.192 62.4266H413.778L404.277 9.6709H404.271ZM396.35 43.1044L398.923 27.3214L401.319 43.1044H396.35Z" fill="black"/>
<path d="M359.632 40.6883L354.134 9.6709H340.715V62.4266H349.517V29.1302L356.413 62.4266H362.975L369.786 29.1302V62.4266H378.582V9.6709H365.287L359.678 40.6883H359.645H359.632Z" fill="black"/>
<path d="M321.928 28.9213L316.181 9.6709H306.752L317.004 41.0997V62.4266H326.433V41.0997L336.685 9.6709H327.263L321.928 28.9213Z" fill="black"/>
<path d="M289.48 53.7352V39.1211H299.601V30.7954H289.48V18.1207H301.926L303.819 9.6709H279.854V62.4266H303.819V53.7352H289.48Z" fill="black"/>
<path d="M262.114 31.4484H253.534V9.6709H243.536V62.4266H253.534V40.1267H262.114V62.4266H272.118V9.6709H262.114V31.4484Z" fill="black"/>
<path d="M212.544 18.1142H221.47V62.42H231.102V18.1142H238.194L240.094 9.6709H212.544V18.1142Z" fill="black"/>
<path d="M190.917 0H115.13C108.613 0 103.311 5.30234 103.311 11.8193V59.4946C103.311 66.0115 108.613 71.3138 115.13 71.3138H190.917C197.434 71.3138 202.736 66.0115 202.736 59.4946V11.8193C202.736 5.30234 197.434 0 190.917 0ZM190.466 6.52997L152.984 36.0389L115.567 6.52997H190.46H190.466ZM196.206 59.4946C196.206 62.4135 193.829 64.7839 190.917 64.7839H115.13C112.211 64.7839 109.841 62.4135 109.841 59.4946V11.8193C109.841 11.6038 109.86 11.3948 109.88 11.1858L152.978 45.1744L196.167 11.1793C196.193 11.3883 196.206 11.6038 196.206 11.8193V59.4946Z" fill="#3DADFF"/>
<path d="M81.2783 9.6709L75.7083 44.7695L69.9292 9.6709H60.082L69.9292 62.4266H81.4938L86.4174 36.0455L91.341 9.6709H81.2783Z" fill="black"/>
<path d="M42.5233 53.7352V39.1211H52.6448V30.7954H42.5233V18.1207H54.9694L56.8631 9.6709H32.8916V62.4266H56.8631V53.7352H42.5233Z" fill="black"/>
<path d="M13.9415 9.6709H0V62.4266H13.073C21.8754 62.4266 26.9688 57.6727 26.9688 47.8712V23.7756C26.9688 12.4984 19.603 9.6709 13.9415 9.6709ZM17.213 49.2621C17.213 52.5598 14.7055 54.3359 12.0021 54.3359H9.3901V18.1142H13.4648C14.9863 18.1142 17.213 19.5246 17.213 23.2532V49.2556V49.2621Z" fill="black"/>
</svg>
