<svg width="599" height="85" viewBox="0 0 599 85" fill="none" xmlns="http://www.w3.org/2000/svg">
<path d="M169 14.3791H184.395V83.4929H200.132V14.3791H212.447L215.868 0.365234H169V14.3791ZM252.132 34.7629H238.447V0.365234H222.368V83.4929H238.447V48.4582H252.132V83.4929H268.211V0.365234H252.132V34.7629ZM279.842 83.4929H319.868V69.7975H295.921V46.8657H313.026V33.8074H295.921V14.0606H316.789L319.868 0.365234H279.842V83.4929ZM575.053 69.7975V46.8657H592.158V33.8074H575.053V14.0606H594.553L597.632 0.365234H558.632V83.4929H599V69.7975H575.053ZM348.605 30.6224L339.026 0.365234H322.947L340.395 50.0507V83.8114H356.474V50.0507L373.579 0.365234H357.5L348.605 30.6224ZM410.5 49.4137L410.158 45.9103L401.605 0.365234H380.053V83.4929H394.079C394.079 83.4929 394.079 38.2663 394.079 37.6293C394.079 36.6739 394.079 36.0369 394.763 35.7184C395.789 35.3999 396.132 37.3108 396.132 37.3108L405.368 83.4929H415.289L425.553 36.0369C425.553 36.0369 425.895 34.7629 426.237 34.7629C426.579 34.7629 426.921 35.3999 426.921 36.6738C426.921 38.2663 426.921 83.1744 426.921 83.1744H440.947V0.365234H420.421L410.5 49.4137ZM463.868 0.683731L448.132 83.4929H463.868L466.947 66.294H479.263L482 83.4929H498.079L482.342 0.683731H463.868ZM468.658 53.2357L473.105 28.3929L477.211 53.2357H468.658ZM528.184 0.683731C518.605 0.683731 504.921 0.683731 504.921 0.683731V83.4929C504.921 83.4929 512.789 83.4929 526.816 83.4929C541.526 83.4929 550.079 75.8489 550.079 60.5611V22.9785C550.079 5.14268 537.763 0.683731 528.184 0.683731ZM533.658 62.7906C533.658 67.8865 529.553 70.753 525.105 70.753H520.658V14.0606C520.658 14.0606 524.763 14.0606 527.5 14.0606C529.895 14.0606 533.658 16.2901 533.658 22.023V62.7906Z" fill="black"/>
<path d="M71.0526 69.5519V46.6201H88.1579V33.5618H71.0526V13.815H90.5526L93.6316 0.119629H54.6315V83.2473H95V69.5519H71.0526ZM114.868 83.2473L99.1316 0.438129H114.868L119.658 30.6953H128.211L133 0.438129H149.079L141.21 41.8427L133.342 83.2473H114.868ZM119.658 30.6953L124.105 55.538L128.211 30.6953H119.658ZM24.1842 0.438129C14.6053 0.438129 0.921021 0.438129 0.921021 0.438129V83.2473C0.921021 83.2473 8.78945 83.2473 22.8158 83.2473C37.5263 83.2473 46.0789 75.6033 46.0789 60.3155V22.7329C46.0789 4.89708 33.7632 0.438129 24.1842 0.438129ZM29.6579 62.545C29.6579 67.6409 25.5526 70.5074 21.1053 70.5074H16.6579V13.815C16.6579 13.815 20.7631 13.815 23.5 13.815C25.8947 13.815 29.6579 16.0445 29.6579 21.7774V62.545Z" fill="#3DADFF"/>
<path d="M152 71.5609H167V84.8966H152V71.5609Z" fill="#3DADFF"/>
</svg>
