<svg width="454" height="65" viewBox="0 0 454 65" fill="none" xmlns="http://www.w3.org/2000/svg">
<path d="M435.346 36.2845H447.817V26.0267H435.346V10.4107H450.681L453.014 0H423.479V64.9984H453.014V54.29H435.346V36.2845Z" fill="black"/>
<path d="M401.743 0H384.566V64.9984H400.673C411.518 64.9984 417.794 59.1414 417.794 47.0653V17.378C417.794 3.48364 408.719 0 401.743 0ZM405.774 48.779C405.774 52.8419 402.685 55.0302 399.354 55.0302H396.136V10.4026H401.156C403.03 10.4026 405.774 12.1404 405.774 16.7343V48.779Z" fill="black"/>
<path d="M352.698 0L341 64.9984H352.489L354.637 51.7557H363.76L365.804 64.9984H377.614L365.9 0H352.698ZM356.133 41.1922L359.303 21.7466L362.256 41.1922H356.133Z" fill="black"/>
<path d="M311.993 38.2154H311.953L305.179 0H288.638V64.9984H299.483L299.475 23.9751L307.979 64.9984H316.064L324.456 23.9751L324.448 64.9984H335.285V0H318.904L311.993 38.2154Z" fill="black"/>
<path d="M265.498 23.7177L258.418 0H246.801L259.432 38.7223V64.9984H271.049V38.7223L283.681 0H272.071L265.498 23.7177Z" fill="black"/>
<path d="M240.855 10.4107L243.189 0H213.662V64.9984H243.189V54.29H225.521V36.2845H237.991V26.0267H225.521V10.4107H240.855Z" fill="black"/>
<path d="M191.804 26.8312H181.232V0H168.915V64.9984H181.232V37.5235H191.804V64.9984H204.13V0H191.804V26.8312Z" fill="black"/>
<path d="M130.728 10.4026H141.726V64.9903H153.592V10.4026H162.33L164.671 0H130.728V10.4026Z" fill="black"/>
<path d="M126.378 54.2915H115.638V64.9999H126.378V54.2915Z" fill="#3DADFF"/>
<path d="M100.14 0L93.2769 43.2438L86.1568 0H74.0244L86.1568 64.9984H100.405L106.471 32.4952L112.538 0H100.14Z" fill="#3DADFF"/>
<path d="M52.3923 54.29V36.2845H64.8626V26.0267H52.3923V10.4107H67.7267L70.0599 0H40.5254V64.9984H70.0599V54.29H52.3923Z" fill="#3DADFF"/>
<path d="M17.1768 0H0V64.9984H16.1068C26.9519 64.9984 33.2273 59.1414 33.2273 47.0653V17.378C33.2273 3.48364 24.1521 0 17.1768 0ZM21.2075 48.779C21.2075 52.8419 18.1181 55.0302 14.7873 55.0302H11.5692V10.4026H16.5895C18.4641 10.4026 21.2075 12.1404 21.2075 16.7343V48.779Z" fill="#3DADFF"/>
</svg>
