<svg width="400" height="360" viewBox="0 0 400 360" fill="none" xmlns="http://www.w3.org/2000/svg">
<path d="M100.041 190.808L100.011 178.51L93.9798 188.641H91.8424L85.8401 178.774V190.808H81.3896V170.312H85.3131L92.9843 183.049L100.538 170.312H104.433L104.491 190.808H100.041ZM115.385 174.821C117.825 174.821 119.699 175.407 121.007 176.578C122.315 177.729 122.969 179.476 122.969 181.819V190.808H118.694V188.846C117.835 190.31 116.235 191.042 113.892 191.042C112.682 191.042 111.628 190.837 110.73 190.427C109.852 190.017 109.178 189.451 108.71 188.729C108.241 188.007 108.007 187.187 108.007 186.269C108.007 184.805 108.554 183.654 109.647 182.814C110.759 181.975 112.467 181.555 114.771 181.555H118.401C118.401 180.56 118.099 179.799 117.494 179.271C116.888 178.725 115.981 178.452 114.771 178.452C113.931 178.452 113.102 178.588 112.282 178.862C111.481 179.115 110.798 179.467 110.232 179.916L108.593 176.724C109.451 176.119 110.476 175.651 111.667 175.319C112.877 174.987 114.117 174.821 115.385 174.821ZM115.034 187.967C115.815 187.967 116.508 187.792 117.113 187.44C117.718 187.07 118.147 186.533 118.401 185.83V184.22H115.268C113.394 184.22 112.457 184.835 112.457 186.064C112.457 186.65 112.682 187.118 113.131 187.47C113.599 187.802 114.234 187.967 115.034 187.967ZM132.402 191.042C131.094 191.042 129.816 190.886 128.567 190.573C127.317 190.242 126.322 189.832 125.58 189.344L127.103 186.064C127.805 186.513 128.654 186.884 129.65 187.177C130.645 187.45 131.621 187.587 132.578 187.587C134.51 187.587 135.477 187.109 135.477 186.152C135.477 185.703 135.213 185.381 134.686 185.186C134.159 184.991 133.349 184.825 132.256 184.688C130.968 184.493 129.904 184.269 129.064 184.015C128.225 183.761 127.493 183.312 126.868 182.668C126.263 182.024 125.961 181.106 125.961 179.916C125.961 178.92 126.244 178.042 126.81 177.28C127.395 176.5 128.235 175.895 129.328 175.465C130.441 175.036 131.748 174.821 133.251 174.821C134.364 174.821 135.467 174.948 136.56 175.202C137.673 175.436 138.59 175.768 139.312 176.197L137.79 179.447C136.404 178.666 134.891 178.276 133.251 178.276C132.275 178.276 131.543 178.413 131.055 178.686C130.567 178.959 130.323 179.311 130.323 179.74C130.323 180.228 130.587 180.57 131.114 180.765C131.641 180.96 132.48 181.145 133.632 181.321C134.92 181.536 135.974 181.77 136.794 182.024C137.614 182.258 138.326 182.697 138.932 183.341C139.537 183.985 139.839 184.883 139.839 186.035C139.839 187.011 139.546 187.88 138.961 188.641C138.375 189.402 137.516 189.998 136.384 190.427C135.272 190.837 133.944 191.042 132.402 191.042ZM152.817 190.046C152.368 190.378 151.812 190.632 151.148 190.808C150.504 190.964 149.821 191.042 149.099 191.042C147.225 191.042 145.771 190.564 144.736 189.607C143.721 188.651 143.214 187.245 143.214 185.391V178.92H140.784V175.407H143.214V171.571H147.781V175.407H151.705V178.92H147.781V185.332C147.781 185.996 147.947 186.513 148.279 186.884C148.63 187.236 149.118 187.411 149.743 187.411C150.465 187.411 151.08 187.216 151.587 186.826L152.817 190.046ZM170.325 182.99C170.325 183.049 170.296 183.458 170.237 184.22H158.321C158.535 185.196 159.043 185.967 159.843 186.533C160.644 187.099 161.639 187.382 162.83 187.382C163.65 187.382 164.372 187.265 164.997 187.031C165.641 186.777 166.236 186.386 166.783 185.859L169.213 188.495C167.729 190.193 165.563 191.042 162.713 191.042C160.937 191.042 159.365 190.7 157.999 190.017C156.633 189.314 155.579 188.348 154.837 187.118C154.095 185.889 153.724 184.493 153.724 182.931C153.724 181.389 154.085 180.003 154.807 178.774C155.549 177.524 156.554 176.558 157.823 175.875C159.111 175.172 160.546 174.821 162.127 174.821C163.669 174.821 165.065 175.153 166.314 175.817C167.563 176.48 168.539 177.437 169.242 178.686C169.964 179.916 170.325 181.35 170.325 182.99ZM162.157 178.276C161.122 178.276 160.253 178.569 159.551 179.154C158.848 179.74 158.419 180.54 158.262 181.555H166.021C165.865 180.56 165.436 179.769 164.733 179.184C164.031 178.579 163.171 178.276 162.157 178.276ZM177.729 177.134C178.275 176.373 179.007 175.797 179.925 175.407C180.862 175.016 181.935 174.821 183.146 174.821V179.037C182.638 178.998 182.297 178.979 182.121 178.979C180.813 178.979 179.789 179.35 179.047 180.091C178.305 180.814 177.934 181.907 177.934 183.371V190.808H173.367V175.055H177.729V177.134ZM194.59 170.312H203.901C206.126 170.312 208.088 170.741 209.786 171.6C211.504 172.44 212.831 173.63 213.768 175.172C214.725 176.714 215.203 178.51 215.203 180.56C215.203 182.609 214.725 184.405 213.768 185.947C212.831 187.489 211.504 188.69 209.786 189.549C208.088 190.388 206.126 190.808 203.901 190.808H194.59V170.312ZM203.667 186.913C205.716 186.913 207.346 186.347 208.557 185.215C209.786 184.064 210.401 182.512 210.401 180.56C210.401 178.608 209.786 177.066 208.557 175.934C207.346 174.782 205.716 174.206 203.667 174.206H199.333V186.913H203.667ZM233.888 182.99C233.888 183.049 233.859 183.458 233.8 184.22H221.883C222.098 185.196 222.606 185.967 223.406 186.533C224.207 187.099 225.202 187.382 226.393 187.382C227.213 187.382 227.935 187.265 228.559 187.031C229.203 186.777 229.799 186.386 230.345 185.859L232.775 188.495C231.292 190.193 229.125 191.042 226.275 191.042C224.499 191.042 222.928 190.7 221.561 190.017C220.195 189.314 219.141 188.348 218.399 187.118C217.657 185.889 217.287 184.493 217.287 182.931C217.287 181.389 217.648 180.003 218.37 178.774C219.112 177.524 220.117 176.558 221.386 175.875C222.674 175.172 224.109 174.821 225.69 174.821C227.232 174.821 228.627 175.153 229.877 175.817C231.126 176.48 232.102 177.437 232.805 178.686C233.527 179.916 233.888 181.35 233.888 182.99ZM225.719 178.276C224.685 178.276 223.816 178.569 223.113 179.154C222.411 179.74 221.981 180.54 221.825 181.555H229.584C229.428 180.56 228.999 179.769 228.296 179.184C227.593 178.579 226.734 178.276 225.719 178.276ZM236.929 169.082H241.497V190.808H236.929V169.082ZM245.736 175.055H250.303V190.808H245.736V175.055ZM248.019 172.859C247.18 172.859 246.497 172.615 245.97 172.127C245.443 171.639 245.179 171.034 245.179 170.312C245.179 169.59 245.443 168.985 245.97 168.497C246.497 168.009 247.18 167.765 248.019 167.765C248.859 167.765 249.542 167.999 250.069 168.467C250.596 168.936 250.86 169.521 250.86 170.224C250.86 170.985 250.596 171.62 250.069 172.127C249.542 172.615 248.859 172.859 248.019 172.859ZM270.178 175.055L263.531 190.808H258.817L252.2 175.055H256.914L261.277 185.772L265.786 175.055H270.178ZM287.043 182.99C287.043 183.049 287.014 183.458 286.955 184.22H275.039C275.253 185.196 275.761 185.967 276.561 186.533C277.361 187.099 278.357 187.382 279.547 187.382C280.367 187.382 281.089 187.265 281.714 187.031C282.358 186.777 282.953 186.386 283.5 185.859L285.931 188.495C284.447 190.193 282.28 191.042 279.43 191.042C277.654 191.042 276.083 190.7 274.716 190.017C273.35 189.314 272.296 188.348 271.554 187.118C270.813 185.889 270.441 184.493 270.441 182.931C270.441 181.389 270.803 180.003 271.525 178.774C272.267 177.524 273.272 176.558 274.541 175.875C275.829 175.172 277.263 174.821 278.845 174.821C280.387 174.821 281.783 175.153 283.032 175.817C284.281 176.48 285.257 177.437 285.959 178.686C286.682 179.916 287.043 181.35 287.043 182.99ZM278.874 178.276C277.839 178.276 276.971 178.569 276.268 179.154C275.565 179.74 275.136 180.54 274.98 181.555H282.739C282.583 180.56 282.153 179.769 281.451 179.184C280.748 178.579 279.889 178.276 278.874 178.276ZM294.447 177.134C294.993 176.373 295.725 175.797 296.643 175.407C297.579 175.016 298.653 174.821 299.863 174.821V179.037C299.356 178.998 299.014 178.979 298.839 178.979C297.531 178.979 296.506 179.35 295.764 180.091C295.023 180.814 294.651 181.907 294.651 183.371V190.808H290.084V175.055H294.447V177.134ZM318.757 175.055L311.643 191.774C310.921 193.589 310.023 194.868 308.949 195.609C307.895 196.351 306.617 196.722 305.113 196.722C304.293 196.722 303.483 196.595 302.683 196.341C301.883 196.088 301.229 195.736 300.721 195.287L302.391 192.037C302.742 192.35 303.142 192.594 303.591 192.769C304.059 192.945 304.518 193.033 304.967 193.033C305.591 193.033 306.099 192.877 306.489 192.564C306.88 192.272 307.231 191.774 307.543 191.071L307.602 190.925L300.78 175.055H305.494L309.915 185.742L314.366 175.055H318.757Z" fill="#FFF9F5"/>
</svg>
