<svg width="210" height="80" viewBox="0 0 210 80" fill="none" xmlns="http://www.w3.org/2000/svg">
<path d="M15.6853 57.2074L15.6606 46.9569L10.5881 55.4014H8.79062L3.74279 47.1766V57.2074H0V40.1233H3.29957L9.75097 50.7399L16.1038 40.1233H19.3788L19.428 57.2074H15.6853ZM28.59 43.8818C30.6419 43.8818 32.2179 44.3699 33.3177 45.3462C34.4176 46.3062 34.9675 47.7624 34.9675 49.7148V57.2074H31.3725V55.5722C30.6502 56.7926 29.3041 57.4027 27.3342 57.4027C26.3164 57.4027 25.4299 57.2318 24.6748 56.8901C23.9361 56.5485 23.3697 56.0767 22.9758 55.4746C22.5818 54.8726 22.3848 54.1893 22.3848 53.4245C22.3848 52.2043 22.8445 51.2443 23.7637 50.5447C24.6995 49.845 26.1358 49.4952 28.0729 49.4952H31.1262C31.1262 48.6654 30.8718 48.0308 30.3629 47.5915C29.854 47.1359 29.0906 46.9082 28.0729 46.9082C27.367 46.9082 26.6693 47.0221 25.9799 47.2499C25.3068 47.4614 24.7323 47.7542 24.2562 48.1285L22.8773 45.4682C23.5996 44.9638 24.4614 44.5733 25.4628 44.2967C26.4806 44.0201 27.5229 43.8818 28.59 43.8818ZM28.2945 54.8401C28.9512 54.8401 29.5339 54.6936 30.0428 54.4008C30.5517 54.0916 30.9128 53.6442 31.1262 53.0584V51.7161H28.4915C26.9156 51.7161 26.1276 52.2287 26.1276 53.2537C26.1276 53.7418 26.3164 54.1323 26.6939 54.4252C27.0879 54.7018 27.6214 54.8401 28.2945 54.8401ZM42.9009 57.4027C41.8011 57.4027 40.7259 57.2725 39.6753 57.0122C38.6246 56.7356 37.7874 56.3939 37.1636 55.9871L38.444 53.2537C39.035 53.6279 39.7491 53.937 40.5863 54.1811C41.4235 54.4089 42.2443 54.5228 43.0487 54.5228C44.6739 54.5228 45.4864 54.1241 45.4864 53.3269C45.4864 52.9527 45.2648 52.6842 44.8216 52.5215C44.3783 52.3588 43.6971 52.2205 42.7778 52.1066C41.6944 51.9439 40.7997 51.7568 40.0938 51.5453C39.388 51.3338 38.7724 50.9595 38.2471 50.4226C37.7382 49.8857 37.4838 49.121 37.4838 48.1285C37.4838 47.2986 37.7218 46.5665 38.1978 45.9319C38.6903 45.2811 39.3962 44.7767 40.3155 44.4187C41.2511 44.0608 42.351 43.8818 43.615 43.8818C44.5507 43.8818 45.4782 43.9876 46.3975 44.1991C47.3332 44.3943 48.1047 44.671 48.7121 45.0289L47.4317 47.738C46.2662 47.0871 44.9939 46.7617 43.615 46.7617C42.7942 46.7617 42.1786 46.8756 41.7682 47.1034C41.3578 47.3312 41.1526 47.6241 41.1526 47.982C41.1526 48.3888 41.3743 48.6735 41.8175 48.8362C42.2607 48.9989 42.9666 49.1535 43.9351 49.2999C45.0185 49.4789 45.905 49.6742 46.5945 49.8857C47.2839 50.0809 47.8831 50.447 48.392 50.9839C48.9009 51.5209 49.1554 52.2693 49.1554 53.2293C49.1554 54.0428 48.9091 54.7669 48.4166 55.4014C47.9242 56.036 47.2019 56.5322 46.2498 56.8901C45.3141 57.2318 44.1978 57.4027 42.9009 57.4027ZM60.0699 56.5729C59.692 56.8495 59.2244 57.061 58.666 57.2074C58.1244 57.3376 57.5497 57.4027 56.9425 57.4027C55.3667 57.4027 54.1437 57.0041 53.2736 56.2068C52.42 55.4095 51.9932 54.2381 51.9932 52.6923V47.2986H49.9495V44.3699H51.9932V41.1728H55.8347V44.3699H59.1341V47.2986H55.8347V52.6435C55.8347 53.1967 55.9743 53.6279 56.2529 53.937C56.5484 54.23 56.9588 54.3764 57.4841 54.3764C58.0919 54.3764 58.6088 54.2137 59.0355 53.8883L60.0699 56.5729ZM74.7939 50.6911C74.7939 50.7399 74.7692 51.0816 74.7199 51.7161H64.6981C64.8786 52.5297 65.3058 53.1723 65.9786 53.6442C66.652 54.116 67.4891 54.352 68.4904 54.352C69.18 54.352 69.7872 54.2543 70.3125 54.0591C70.8541 53.8476 71.3548 53.5222 71.8145 53.0829L73.8581 55.2794C72.6107 56.6949 70.7885 57.4027 68.3917 57.4027C66.8981 57.4027 65.5766 57.118 64.4273 56.5485C63.2785 55.9627 62.3921 55.1574 61.7681 54.1323C61.1441 53.1073 60.8324 51.9439 60.8324 50.6422C60.8324 49.3569 61.1362 48.2017 61.7434 47.1766C62.3674 46.1353 63.2124 45.3299 64.2798 44.7604C65.363 44.1747 66.5696 43.8818 67.8995 43.8818C69.1963 43.8818 70.3697 44.1584 71.4204 44.7116C72.4711 45.2648 73.2919 46.0621 73.8828 47.1034C74.49 48.1285 74.7939 49.3243 74.7939 50.6911ZM67.9241 46.7617C67.054 46.7617 66.3234 47.0058 65.7325 47.4939C65.1416 47.982 64.7805 48.6491 64.6488 49.4952H71.1743C71.0431 48.6654 70.682 48.0064 70.0911 47.5183C69.5001 47.0139 68.7774 46.7617 67.9241 46.7617ZM81.0205 45.8099C81.4797 45.1753 82.0953 44.6954 82.8668 44.3699C83.6551 44.0445 84.5577 43.8818 85.5759 43.8818V47.3963C85.1487 47.3637 84.8616 47.3474 84.7136 47.3474C83.6141 47.3474 82.7524 47.6566 82.1284 48.2749C81.5044 48.8769 81.1927 49.7881 81.1927 51.0083V57.2074H77.3516V44.0771H81.0205V45.8099ZM95.2001 40.1233H103.03C104.902 40.1233 106.552 40.4813 107.98 41.1972C109.425 41.8968 110.541 42.8893 111.329 44.1747C112.133 45.4601 112.535 46.9569 112.535 48.6654C112.535 50.3738 112.133 51.8707 111.329 53.1561C110.541 54.4415 109.425 55.4421 107.98 56.158C106.552 56.8576 104.902 57.2074 103.03 57.2074H95.2001V40.1233ZM102.834 53.9614C104.557 53.9614 105.928 53.4896 106.946 52.5459C107.98 51.5859 108.497 50.2924 108.497 48.6654C108.497 47.0383 107.98 45.753 106.946 44.8092C105.928 43.8493 104.557 43.3693 102.834 43.3693H99.1892V53.9614H102.834ZM128.249 50.6911C128.249 50.7399 128.225 51.0816 128.175 51.7161H118.153C118.334 52.5297 118.761 53.1723 119.434 53.6442C120.107 54.116 120.944 54.352 121.946 54.352C122.635 54.352 123.243 54.2543 123.768 54.0591C124.31 53.8476 124.81 53.5222 125.27 53.0829L127.314 55.2794C126.066 56.6949 124.244 57.4027 121.847 57.4027C120.354 57.4027 119.032 57.118 117.883 56.5485C116.734 55.9627 115.847 55.1574 115.223 54.1323C114.599 53.1073 114.288 51.9439 114.288 50.6422C114.288 49.3569 114.592 48.2017 115.199 47.1766C115.823 46.1353 116.668 45.3299 117.735 44.7604C118.818 44.1747 120.025 43.8818 121.355 43.8818C122.652 43.8818 123.825 44.1584 124.876 44.7116C125.926 45.2648 126.747 46.0621 127.338 47.1034C127.946 48.1285 128.249 49.3243 128.249 50.6911ZM121.38 46.7617C120.509 46.7617 119.779 47.0058 119.188 47.4939C118.597 47.982 118.236 48.6491 118.105 49.4952H124.63C124.498 48.6654 124.137 48.0064 123.546 47.5183C122.956 47.0139 122.233 46.7617 121.38 46.7617ZM130.807 39.0983H134.648V57.2074H130.807V39.0983ZM138.213 44.0771H142.054V57.2074H138.213V44.0771ZM140.134 42.2466C139.428 42.2466 138.854 42.0432 138.41 41.6365C137.967 41.2297 137.745 40.7253 137.745 40.1233C137.745 39.5213 137.967 39.0169 138.41 38.6101C138.854 38.2034 139.428 38 140.134 38C140.839 38 141.414 38.1952 141.858 38.5857C142.3 38.9762 142.522 39.4644 142.522 40.0501C142.522 40.6846 142.3 41.2134 141.858 41.6365C141.414 42.0432 140.839 42.2466 140.134 42.2466ZM158.769 44.0771L153.179 57.2074H149.214L143.649 44.0771H147.614L151.283 53.0096L155.075 44.0771H158.769ZM172.952 50.6911C172.952 50.7399 172.928 51.0816 172.878 51.7161H162.856C163.037 52.5297 163.464 53.1723 164.136 53.6442C164.81 54.116 165.647 54.352 166.648 54.352C167.338 54.352 167.945 54.2543 168.47 54.0591C169.012 53.8476 169.513 53.5222 169.972 53.0829L172.016 55.2794C170.768 56.6949 168.946 57.4027 166.549 57.4027C165.056 57.4027 163.734 57.118 162.585 56.5485C161.436 55.9627 160.55 55.1574 159.926 54.1323C159.302 53.1073 158.99 51.9439 158.99 50.6422C158.99 49.3569 159.294 48.2017 159.901 47.1766C160.525 46.1353 161.371 45.3299 162.438 44.7604C163.521 44.1747 164.727 43.8818 166.057 43.8818C167.354 43.8818 168.528 44.1584 169.579 44.7116C170.629 45.2648 171.45 46.0621 172.041 47.1034C172.648 48.1285 172.952 49.3243 172.952 50.6911ZM166.082 46.7617C165.212 46.7617 164.481 47.0058 163.89 47.4939C163.299 47.982 162.938 48.6491 162.807 49.4952H169.332C169.201 48.6654 168.84 48.0064 168.249 47.5183C167.658 47.0139 166.936 46.7617 166.082 46.7617ZM179.178 45.8099C179.638 45.1753 180.254 44.6954 181.025 44.3699C181.813 44.0445 182.716 43.8818 183.734 43.8818V47.3963C183.307 47.3637 183.019 47.3474 182.872 47.3474C181.772 47.3474 180.91 47.6566 180.286 48.2749C179.663 48.8769 179.35 49.7881 179.35 51.0083V57.2074H175.509V44.0771H179.178V45.8099ZM199.623 44.0771L193.64 58.0128C193.033 59.526 192.278 60.5917 191.375 61.21C190.488 61.8283 189.413 62.1375 188.149 62.1375C187.459 62.1375 186.778 62.0317 186.105 61.8202C185.432 61.6087 184.882 61.3158 184.455 60.9415L185.859 58.2325C186.155 58.4928 186.491 58.6962 186.868 58.8427C187.262 58.9891 187.648 59.0623 188.026 59.0623C188.551 59.0623 188.978 58.9321 189.306 58.6718C189.635 58.4278 189.93 58.0128 190.192 57.4271L190.242 57.3051L184.505 44.0771H188.469L192.187 52.9852L195.93 44.0771H199.623Z" fill="black"/>
</svg>
