<svg width="210" height="80" viewBox="0 0 210 80" fill="none" xmlns="http://www.w3.org/2000/svg">
<path d="M178.736 38.0408C178.736 35.2008 176.524 33.1426 173.81 33.1426V34.1388C175.887 34.1388 177.676 35.724 177.676 38.0408C177.676 40.3315 175.887 41.9429 173.81 41.9429V42.9391C176.524 42.9391 178.736 40.861 178.736 38.0408Z" fill="black"/>
<path d="M13.6509 57.0516H12.4856L0 27.8281H1.16529L13.6509 57.0516Z" fill="black"/>
<path d="M16.4819 57.0516H15.3166L2.83105 27.8281H3.99634L16.4819 57.0516Z" fill="black"/>
<path d="M89.4779 57.0516H87.9796L61.3438 27.8281H62.842L89.4779 57.0516Z" fill="black"/>
<path d="M84.1542 57.0536L64.1729 35.131V33.7645C64.2645 33.7292 64.2683 33.7278 64.3599 33.6924L85.6525 57.0536H84.1542Z" fill="black"/>
<path d="M16.5672 50.6224H15.4019L5.66309 27.8281H6.82837L16.5672 50.6224Z" fill="black"/>
<path d="M15.4814 57.0516H16.6467L29.1323 27.8281H27.967L15.4814 57.0516Z" fill="black"/>
<path d="M15.4014 50.6225L15.9097 51.7043C16.0027 51.7027 16.0131 51.7025 16.106 51.7009L26.3052 27.8281H25.14L15.4014 50.6225Z" fill="black"/>
<path d="M15.3271 44.1737L15.8108 45.306H16.0086L23.4761 27.8281H22.3108L15.3271 44.1737Z" fill="black"/>
<path d="M62.509 27.8281H61.3438V57.0559H62.509V27.8281Z" fill="black"/>
<path d="M65.3381 34.9396L64.1729 34.8516V57.06H65.3381V34.9396Z" fill="black"/>
<path d="M68.1672 41.6543L67.189 40.5811C67.0973 40.6163 67.0935 40.6179 67.002 40.6533V57.0565H68.1672V41.6543Z" fill="black"/>
<path d="M160.333 27.8281H159.168V57.0559H160.333V27.8281Z" fill="black"/>
<path d="M174.241 27.8281H159.168V28.8243H174.241V27.8281Z" fill="black"/>
<path d="M174.026 30.4902H161.998V31.4864H174.026V30.4902Z" fill="black"/>
<path d="M163.163 30.4902H161.998V57.0613H163.163V30.4902Z" fill="black"/>
<path d="M165.994 44.6035H164.829V57.061H165.994V44.6035Z" fill="black"/>
<path d="M165.995 33.1426H164.83V42.9391H165.995V33.1426Z" fill="black"/>
<path d="M65.167 27.8281H66.6651L86.6466 49.7508L86.6547 51.1254C86.5629 51.1611 86.5595 51.1625 86.4677 51.1983L65.167 27.8281Z" fill="black"/>
<path d="M172.148 44.6035H170.649L182.004 57.061H183.502L172.148 44.6035Z" fill="black"/>
<path d="M170.839 47.2549L169.818 47.7788L178.274 57.0556H179.772L170.839 47.2549Z" fill="black"/>
<path d="M85.4785 49.0539L86.6437 50.5235V27.8281H85.4785V49.0539Z" fill="black"/>
<path d="M82.6494 43.23L83.6276 44.3034C83.7193 44.268 83.723 44.2666 83.8146 44.2313V27.8281H82.6494V43.23Z" fill="black"/>
<path d="M89.5823 27.8281H88.417V57.0559H89.5823V27.8281Z" fill="black"/>
<path d="M173.813 33.1426H164.83V34.1388H173.813V33.1426Z" fill="black"/>
<path d="M173.813 41.9424H164.83V42.9386H173.813V41.9424Z" fill="black"/>
<path d="M173.054 45.5997L172.146 44.6035H164.829V45.5997H173.054Z" fill="black"/>
<path d="M171.748 48.254L170.84 47.2578H165.997V48.254H171.748Z" fill="black"/>
<path d="M52.9543 40.2862L52.9218 40.1381L52.5713 39.29H36.9924L36.6699 40.2862H52.9543Z" fill="black"/>
<path d="M55.871 42.9386L55.166 41.9424H36.0928V42.9386H55.871Z" fill="black"/>
<path d="M58.1929 45.5997L57.6585 44.6035H36.6699L36.9924 45.5997H58.1929Z" fill="black"/>
<path d="M43.3067 33.5624C47.2713 33.5624 50.7698 36.1633 51.736 40.1759L52.9391 40.1982C51.9637 35.5786 48.0119 32.4209 43.3055 32.4209C37.8699 32.4209 33.3857 36.6327 33.3857 42.444C33.3857 48.2148 38.0088 52.4671 43.6826 52.4671C47.1102 52.4671 50.154 50.9148 52.0271 48.4137L51.0864 47.6691C49.4181 49.943 46.6802 51.3256 43.6877 51.3256C38.8134 51.3256 34.6136 47.6646 34.6136 42.444C34.6136 37.1706 38.6371 33.5624 43.3067 33.5624Z" fill="black"/>
<path d="M43.2994 27C34.9271 27 27.8018 33.4872 27.8018 42.4383C27.8018 51.3268 34.9228 57.8766 43.6619 57.8766C48.8495 57.8766 53.4666 55.5686 56.3628 51.8337L55.4885 51.1413C52.7698 54.6899 48.416 56.8376 43.6668 56.8376C35.7643 56.8376 28.9554 50.9022 28.9554 42.4383C28.9554 33.8888 35.7299 28.0391 43.3006 28.0391C50.8713 28.0391 57.3943 33.8888 57.3943 42.4383C57.3943 43.3377 57.3203 44.2087 57.1791 45.0472C57.1464 45.2414 58.1957 45.5931 58.1957 45.5931C58.3909 44.5818 58.4937 43.5277 58.4937 42.4383C58.4937 33.4872 51.6716 27 43.2994 27Z" fill="black"/>
<path d="M55.866 42.9417C55.8718 42.7766 55.8747 42.6106 55.8747 42.4436C55.8747 35.0345 50.2279 29.665 43.2981 29.665C36.3682 29.665 30.54 35.0345 30.54 42.4436C30.54 49.8008 36.4343 55.2221 43.668 55.2221C47.9911 55.2221 51.8356 53.2856 54.2296 50.1566L53.3217 49.4384C51.1186 52.3608 47.5585 54.1325 43.6723 54.1325C37.2571 54.1325 31.7298 49.3143 31.7298 42.4436C31.7298 35.5032 37.153 30.7545 43.2987 30.7545C49.4445 30.7545 54.7398 35.5032 54.7398 42.4436C54.7398 42.6159 55.8659 42.945 55.866 42.9417Z" fill="black"/>
<path d="M117.974 40.2862L117.941 40.1381L117.591 39.29H102.012L101.689 40.2862H117.974Z" fill="black"/>
<path d="M120.884 42.9386L120.179 41.9424H101.105V42.9386H120.884Z" fill="black"/>
<path d="M123.213 45.5997L122.678 44.6035H101.689L102.012 45.5997H123.213Z" fill="black"/>
<path d="M108.321 33.5624C112.285 33.5624 115.784 36.1633 116.75 40.1759L117.953 40.1982C116.977 35.5786 113.026 32.4209 108.319 32.4209C102.884 32.4209 98.3994 36.6327 98.3994 42.444C98.3994 48.2148 103.023 52.4671 108.696 52.4671C112.124 52.4671 115.168 50.9148 117.041 48.4137L116.1 47.6691C114.432 49.943 111.694 51.3256 108.701 51.3256C103.827 51.3256 99.6274 47.6646 99.6274 42.444C99.6274 37.1706 103.651 33.5624 108.321 33.5624Z" fill="black"/>
<path d="M108.316 27C99.9437 27 92.8184 33.4872 92.8184 42.4383C92.8184 51.3268 99.9393 57.8766 108.678 57.8766C113.866 57.8766 118.483 55.5686 121.379 51.8337L120.505 51.1413C117.786 54.6899 113.433 56.8376 108.683 56.8376C100.781 56.8376 93.972 50.9022 93.972 42.4383C93.972 33.8888 100.747 28.0391 108.317 28.0391C115.888 28.0391 122.411 33.8888 122.411 42.4383C122.411 43.3377 122.337 44.2087 122.196 45.0472C122.163 45.2414 123.212 45.5931 123.212 45.5931C123.408 44.5818 123.51 43.5277 123.51 42.4383C123.51 33.4872 116.688 27 108.316 27Z" fill="black"/>
<path d="M120.888 42.9417C120.894 42.7766 120.897 42.6106 120.897 42.4436C120.897 35.0345 115.25 29.665 108.32 29.665C101.391 29.665 95.5625 35.0345 95.5625 42.4436C95.5625 49.8008 101.457 55.2221 108.69 55.2221C113.013 55.2221 116.858 53.2856 119.252 50.1566L118.344 49.4384C116.141 52.3608 112.581 54.1325 108.695 54.1325C102.28 54.1325 96.7522 49.3143 96.7522 42.4436C96.7522 35.5032 102.175 30.7545 108.321 30.7545C114.467 30.7545 119.762 35.5032 119.762 42.4436C119.762 42.6159 120.888 42.945 120.888 42.9417Z" fill="black"/>
<path d="M150.72 40.2862L150.687 40.1381L150.337 39.29H134.758L134.436 40.2862H150.72Z" fill="black"/>
<path d="M153.631 42.9386L152.926 41.9424H133.853V42.9386H153.631Z" fill="black"/>
<path d="M155.959 45.5997L155.424 44.6035H134.436L134.758 45.5997H155.959Z" fill="black"/>
<path d="M141.073 33.5624C145.038 33.5624 148.537 36.1633 149.503 40.1759L150.706 40.1982C149.73 35.5786 145.779 32.4209 141.072 32.4209C135.637 32.4209 131.152 36.6327 131.152 42.444C131.152 48.2148 135.776 52.4671 141.449 52.4671C144.877 52.4671 147.921 50.9148 149.794 48.4137L148.853 47.6691C147.185 49.943 144.447 51.3256 141.454 51.3256C136.58 51.3256 132.38 47.6646 132.38 42.444C132.38 37.1706 136.404 33.5624 141.073 33.5624Z" fill="black"/>
<path d="M141.065 27C132.693 27 125.567 33.4872 125.567 42.4383C125.567 51.3268 132.688 57.8766 141.428 57.8766C146.615 57.8766 151.232 55.5686 154.128 51.8337L153.254 51.1413C150.535 54.6899 146.182 56.8376 141.432 56.8376C133.53 56.8376 126.721 50.9022 126.721 42.4383C126.721 33.8888 133.496 28.0391 141.066 28.0391C148.637 28.0391 155.16 33.8888 155.16 42.4383C155.16 43.3377 155.086 44.2087 154.945 45.0472C154.912 45.2414 155.961 45.5931 155.961 45.5931C156.157 44.5818 156.259 43.5277 156.259 42.4383C156.259 33.4872 149.437 27 141.065 27Z" fill="black"/>
<path d="M153.634 42.9417C153.64 42.7766 153.643 42.6106 153.643 42.4436C153.643 35.0345 147.996 29.665 141.067 29.665C134.137 29.665 128.309 35.0345 128.309 42.4436C128.309 49.8008 134.203 55.2221 141.436 55.2221C145.76 55.2221 149.604 53.2856 151.998 50.1566L151.09 49.4384C148.887 52.3608 145.327 54.1325 141.441 54.1325C135.026 54.1325 129.498 49.3143 129.498 42.4436C129.498 35.5032 134.921 30.7545 141.067 30.7545C147.213 30.7545 152.508 35.5032 152.508 42.4436C152.508 42.6159 153.634 42.945 153.634 42.9417Z" fill="black"/>
<path d="M176.309 45.072L174.447 44.6748L185.732 57.0527H187.23L176.309 45.072Z" fill="black"/>
<path d="M174.245 27.8281V28.8243C179.151 28.8243 183.377 32.5681 183.377 38.0398C183.377 41.655 181.489 44.5534 178.773 46.0788L179.494 46.8694C182.498 45.1402 184.516 41.9286 184.516 38.0398C184.516 32.119 179.904 27.8281 174.245 27.8281Z" fill="black"/>
<path d="M174.028 30.4912V31.4876C177.52 31.4876 180.528 34.1521 180.528 38.0463C180.528 41.728 177.777 44.3639 174.484 44.5879C174.451 44.6707 174.478 44.6018 174.446 44.6845C174.446 44.6845 175.17 45.5188 175.202 45.5141C178.834 44.9781 181.627 41.9813 181.627 38.0463C181.627 33.6659 178.215 30.4912 174.028 30.4912Z" fill="black"/>
</svg>
