<svg width="400" height="360" viewBox="0 0 400 360" fill="none" xmlns="http://www.w3.org/2000/svg">
<path d="M317.662 175.633C317.662 171.868 314.647 169.14 310.946 169.14V170.46C313.778 170.46 316.218 172.562 316.218 175.633C316.218 178.669 313.778 180.805 310.946 180.805V182.126C314.647 182.126 317.662 179.371 317.662 175.633Z" fill="white"/>
<path d="M92.6092 200.834H91.0206L74 162.096H75.5885L92.6092 200.834Z" fill="white"/>
<path d="M96.4666 200.834H94.8781L77.8574 162.096H79.446L96.4666 200.834Z" fill="white"/>
<path d="M195.977 200.834H193.935L157.624 162.096H159.667L195.977 200.834Z" fill="white"/>
<path d="M188.72 200.84L161.481 171.78V169.969C161.606 169.922 161.612 169.92 161.736 169.873L190.763 200.84H188.72Z" fill="white"/>
<path d="M96.5806 192.311H94.992L81.7158 162.096H83.3044L96.5806 192.311Z" fill="white"/>
<path d="M95.1055 200.834H96.694L113.715 162.096H112.126L95.1055 200.834Z" fill="white"/>
<path d="M94.9922 192.311L95.6851 193.745C95.8119 193.743 95.8261 193.743 95.9527 193.741L109.857 162.096H108.268L94.9922 192.311Z" fill="white"/>
<path d="M94.8896 183.763L95.549 185.264H95.8187L105.998 162.096H104.41L94.8896 183.763Z" fill="white"/>
<path d="M159.213 162.096H157.624V200.839H159.213V162.096Z" fill="white"/>
<path d="M163.07 171.518L161.481 171.401V200.84H163.07V171.518Z" fill="white"/>
<path d="M166.927 180.423L165.594 179C165.469 179.047 165.464 179.049 165.339 179.096V200.839H166.927V180.423Z" fill="white"/>
<path d="M292.573 162.096H290.984V200.839H292.573V162.096Z" fill="white"/>
<path d="M311.532 162.096H290.984V163.422H311.532V162.096Z" fill="white"/>
<path d="M311.24 165.618H294.843V166.945H311.24V165.618Z" fill="white"/>
<path d="M296.431 165.618H294.843V200.84H296.431V165.618Z" fill="white"/>
<path d="M300.289 184.326H298.7V200.839H300.289V184.326Z" fill="white"/>
<path d="M300.289 169.14H298.7V182.126H300.289V169.14Z" fill="white"/>
<path d="M162.837 162.096H164.879L192.118 191.156L192.129 192.978C192.004 193.025 192 193.027 191.875 193.075L162.837 162.096Z" fill="white"/>
<path d="M308.675 184.326H306.633L322.111 200.839H324.154L308.675 184.326Z" fill="white"/>
<path d="M306.892 187.849L305.5 188.543L317.027 200.84H319.069L306.892 187.849Z" fill="white"/>
<path d="M190.53 190.232L192.119 192.18V162.096H190.53V190.232Z" fill="white"/>
<path d="M186.672 182.512L188.005 183.935C188.13 183.888 188.135 183.886 188.26 183.839V162.096H186.672V182.512Z" fill="white"/>
<path d="M196.123 162.096H194.534V200.839H196.123V162.096Z" fill="white"/>
<path d="M310.946 169.14H298.7V170.466H310.946V169.14Z" fill="white"/>
<path d="M310.946 180.805H298.7V182.131H310.946V180.805Z" fill="white"/>
<path d="M309.913 185.653L308.675 184.326H298.7V185.653H309.913Z" fill="white"/>
<path d="M308.129 189.175L306.891 187.849H300.29V189.175H308.129Z" fill="white"/>
<path d="M146.192 178.61L146.148 178.413L145.67 177.283H124.433L123.993 178.61H146.192Z" fill="white"/>
<path d="M150.16 182.131L149.199 180.805H123.198V182.131H150.16Z" fill="white"/>
<path d="M153.334 185.653L152.605 184.326H123.993L124.433 185.653H153.334Z" fill="white"/>
<path d="M133.033 169.692C138.438 169.692 143.207 173.14 144.524 178.459L146.164 178.488C144.835 172.364 139.447 168.179 133.032 168.179C125.622 168.179 119.509 173.762 119.509 181.465C119.509 189.115 125.811 194.751 133.546 194.751C138.218 194.751 142.368 192.694 144.921 189.378L143.639 188.391C141.365 191.406 137.632 193.238 133.553 193.238C126.908 193.238 121.183 188.385 121.183 181.465C121.183 174.475 126.668 169.692 133.033 169.692Z" fill="white"/>
<path d="M133.026 161C121.613 161 111.899 169.599 111.899 181.465C111.899 193.247 121.607 201.929 133.52 201.929C140.592 201.929 146.886 198.87 150.835 193.919L149.643 193.001C145.936 197.705 140.001 200.552 133.527 200.552C122.754 200.552 113.472 192.684 113.472 181.465C113.472 170.132 122.707 162.377 133.028 162.377C143.348 162.377 152.241 170.132 152.241 181.465C152.241 182.657 152.14 183.811 151.947 184.923C151.903 185.18 153.333 185.647 153.333 185.647C153.599 184.306 153.739 182.909 153.739 181.465C153.739 169.599 144.439 161 133.026 161Z" fill="white"/>
<path d="M150.162 182.126C150.17 181.907 150.174 181.687 150.174 181.465C150.174 171.644 142.476 164.526 133.029 164.526C123.582 164.526 115.637 171.644 115.637 181.465C115.637 191.218 123.672 198.404 133.533 198.404C139.426 198.404 144.667 195.837 147.931 191.689L146.693 190.737C143.69 194.611 138.837 196.96 133.539 196.96C124.794 196.96 117.259 190.573 117.259 181.465C117.259 172.265 124.652 165.971 133.03 165.971C141.408 165.971 148.626 172.265 148.626 181.465C148.626 181.694 150.162 182.13 150.162 182.126Z" fill="white"/>
<path d="M234.826 178.61L234.782 178.413L234.304 177.283H213.067L212.627 178.61H234.826Z" fill="white"/>
<path d="M238.794 182.131L237.833 180.805H211.832V182.131H238.794Z" fill="white"/>
<path d="M241.968 185.653L241.239 184.326H212.627L213.067 185.653H241.968Z" fill="white"/>
<path d="M221.667 169.692C227.072 169.692 231.841 173.14 233.158 178.459L234.798 178.488C233.469 172.364 228.081 168.179 221.665 168.179C214.256 168.179 208.143 173.762 208.143 181.465C208.143 189.115 214.445 194.751 222.18 194.751C226.852 194.751 231.002 192.694 233.555 189.378L232.273 188.391C229.998 191.406 226.266 193.238 222.187 193.238C215.542 193.238 209.817 188.385 209.817 181.465C209.817 174.475 215.302 169.692 221.667 169.692Z" fill="white"/>
<path d="M221.66 161C210.247 161 200.533 169.599 200.533 181.465C200.533 193.247 210.241 201.929 222.154 201.929C229.226 201.929 235.52 198.87 239.468 193.919L238.276 193.001C234.57 197.705 228.635 200.552 222.161 200.552C211.388 200.552 202.106 192.684 202.106 181.465C202.106 170.132 211.341 162.377 221.662 162.377C231.982 162.377 240.874 170.132 240.874 181.465C240.874 182.657 240.774 183.811 240.581 184.923C240.537 185.18 241.967 185.647 241.967 185.647C242.233 184.306 242.373 182.909 242.373 181.465C242.373 169.599 233.073 161 221.66 161Z" fill="white"/>
<path d="M238.796 182.126C238.803 181.907 238.807 181.687 238.807 181.465C238.807 171.644 231.109 164.526 221.662 164.526C212.215 164.526 204.271 171.644 204.271 181.465C204.271 191.218 212.306 198.404 222.167 198.404C228.06 198.404 233.301 195.837 236.565 191.689L235.327 190.737C232.324 194.611 227.471 196.96 222.173 196.96C213.427 196.96 205.892 190.573 205.892 181.465C205.892 172.265 213.285 165.971 221.663 165.971C230.042 165.971 237.26 172.265 237.26 181.465C237.26 181.694 238.795 182.13 238.796 182.126Z" fill="white"/>
<path d="M279.47 178.61L279.425 178.413L278.948 177.283H257.71L257.271 178.61H279.47Z" fill="white"/>
<path d="M283.44 182.131L282.479 180.805H256.478V182.131H283.44Z" fill="white"/>
<path d="M286.611 185.653L285.883 184.326H257.271L257.71 185.653H286.611Z" fill="white"/>
<path d="M266.312 169.692C271.716 169.692 276.486 173.14 277.803 178.459L279.443 178.488C278.113 172.364 272.726 168.179 266.31 168.179C258.9 168.179 252.787 173.762 252.787 181.465C252.787 189.115 259.09 194.751 266.824 194.751C271.497 194.751 275.646 192.694 278.2 189.378L276.917 188.391C274.643 191.406 270.911 193.238 266.831 193.238C260.186 193.238 254.461 188.385 254.461 181.465C254.461 174.475 259.946 169.692 266.312 169.692Z" fill="white"/>
<path d="M266.304 161C254.89 161 245.177 169.599 245.177 181.465C245.177 193.247 254.884 201.929 266.798 201.929C273.87 201.929 280.164 198.87 284.112 193.919L282.92 193.001C279.214 197.705 273.279 200.552 266.804 200.552C256.032 200.552 246.75 192.684 246.75 181.465C246.75 170.132 255.985 162.377 266.305 162.377C276.626 162.377 285.518 170.132 285.518 181.465C285.518 182.657 285.417 183.811 285.225 184.923C285.18 185.18 286.611 185.647 286.611 185.647C286.877 184.306 287.017 182.909 287.017 181.465C287.017 169.599 277.717 161 266.304 161Z" fill="white"/>
<path d="M283.439 182.126C283.447 181.907 283.451 181.687 283.451 181.465C283.451 171.644 275.753 164.526 266.306 164.526C256.859 164.526 248.914 171.644 248.914 181.465C248.914 191.218 256.949 198.404 266.81 198.404C272.704 198.404 277.945 195.837 281.208 191.689L279.97 190.737C276.967 194.611 272.114 196.96 266.816 196.96C258.071 196.96 250.536 190.573 250.536 181.465C250.536 172.265 257.929 165.971 266.307 165.971C274.685 165.971 281.904 172.265 281.904 181.465C281.904 181.694 283.439 182.13 283.439 182.126Z" fill="white"/>
<path d="M314.347 184.958L311.809 184.432L327.192 200.839H329.234L314.347 184.958Z" fill="white"/>
<path d="M311.533 162.096V163.416C318.22 163.416 323.982 168.379 323.982 175.632C323.982 180.424 321.409 184.266 317.706 186.288L318.688 187.336C322.783 185.044 325.534 180.787 325.534 175.632C325.534 167.784 319.248 162.096 311.533 162.096Z" fill="white"/>
<path d="M311.24 165.618V166.939C316 166.939 320.1 170.471 320.1 175.633C320.1 180.513 316.351 184.007 311.861 184.304C311.817 184.414 311.854 184.323 311.809 184.432C311.809 184.432 312.797 185.538 312.84 185.532C317.792 184.822 321.599 180.849 321.599 175.633C321.599 169.826 316.948 165.618 311.24 165.618Z" fill="white"/>
</svg>
