<svg width="400" height="360" viewBox="0 0 400 360" fill="none" xmlns="http://www.w3.org/2000/svg">
<path d="M232.289 188.87L227.406 196.841H221.556L229.195 184.557L221.846 173.258H228.325L232.966 180.384L237.124 173.258H242.878L236.012 184.698L243.942 196.841H237.463L232.289 188.87ZM206.375 182.916H214.401V182.447C214.401 179.493 213.53 177.196 210.678 177.196C207.922 177.196 206.52 179.165 206.375 182.916ZM211.935 197.31C204.586 197.31 200.428 193.324 200.428 185.12C200.428 177.993 203.764 172.789 210.774 172.789C216.528 172.789 220.251 175.883 220.251 184.088V187.042H206.375C206.616 190.98 208.212 192.902 212.418 192.902C215.222 192.902 218.22 191.871 220.009 190.699V195.247C218.317 196.372 215.609 197.31 211.935 197.31ZM181.427 185.213C181.427 190.558 182.974 192.902 186.116 192.902C189.356 192.902 191 190.511 191 185.026C191 179.587 189.453 177.196 186.358 177.196C183.071 177.196 181.427 179.634 181.427 185.213ZM175.48 185.213C175.48 177.337 179.348 172.789 184.908 172.789C187.422 172.789 189.549 173.914 191 176.024V164.256H196.753V196.841H191.435L191.145 193.793C189.597 196.091 187.374 197.31 184.666 197.31C179.251 197.31 175.48 192.996 175.48 185.213ZM158.074 196.841H152.321V173.258H157.929L158.074 175.227H158.364C159.525 174.102 161.555 172.883 164.988 172.883C169.678 172.883 171.612 174.946 171.612 179.634V196.841H165.858V180.197C165.858 178.415 164.94 177.571 162.909 177.571C160.83 177.571 159.138 178.649 158.074 179.915V196.841ZM141.877 185.823H141.056C136.124 185.823 134.142 186.807 134.142 189.574C134.142 191.684 135.35 193.09 137.768 193.09C139.798 193.09 141.152 192.246 141.877 191.215V185.823ZM147.631 191.074C147.631 192.996 147.728 194.919 147.921 196.841H142.312C142.119 196.372 141.926 195.575 141.877 194.966H141.636C140.524 196.091 139.073 197.169 135.689 197.169C131.241 197.169 128.243 194.497 128.243 189.714C128.243 184.932 132.159 182.119 140.959 182.119H141.877V180.806C141.877 178.274 140.62 177.337 137.865 177.337C134.915 177.337 131.531 178.556 129.984 179.681V175.039C131.724 174.055 134.722 172.883 138.541 172.883C144.633 172.883 147.631 175.039 147.631 180.759V191.074Z" fill="white"/>
<path d="M279.8 164H273.473L281.05 197.5H288.627L296.205 164H289.983L284.891 188.465L279.8 164Z" fill="white"/>
<path d="M257.46 168.656H249.544V164.257H271.185V168.656H263.269V196.682H257.46V168.656Z" fill="white"/>
<path d="M114.078 196.841V193.559C114.078 189.105 113.546 186.901 111.709 183.057L102.765 164.256H108.953L116.544 180.337C118.768 185.026 119.735 187.464 119.735 192.856V196.841H114.078Z" fill="white"/>
<path d="M117.704 180.008L124.763 164.255H130.71L123.554 180.008H117.704Z" fill="white"/>
</svg>
