<svg width="210" height="80" viewBox="0 0 210 80" fill="none" xmlns="http://www.w3.org/2000/svg">
<mask id="mask0_929_10" style="mask-type:alpha" maskUnits="userSpaceOnUse" x="0" y="34" width="125" height="42">
<path d="M0 34H124.601V75.2726H0V34Z" fill="white"/>
</mask>
<g mask="url(#mask0_929_10)">
<path d="M99.9045 66.3469C113.758 66.3469 121.895 61.125 121.895 61.125L121.888 68.8126C121.888 68.8126 113.998 75.2171 99.9095 75.2171H99.9045C85.8164 75.2171 77.9255 68.8126 77.9255 68.8126L77.9189 61.125C77.9189 61.125 86.0508 66.3453 99.9045 66.3453V66.3469Z" fill="black"/>
<path d="M33.9873 34.3201C32.4467 34.3023 30.9178 34.5823 29.4892 35.1439C28.0606 35.7055 26.7607 36.5375 25.6648 37.5917C24.5689 38.6458 23.6989 39.9012 23.105 41.2851C22.5112 42.669 22.2055 44.1539 22.2055 45.6536C22.2055 47.1534 22.5112 48.6382 23.105 50.0221C23.6989 51.406 24.5689 52.6614 25.6648 53.7156C26.7607 54.7697 28.0606 55.6017 29.4892 56.1633C30.9178 56.7249 32.4467 57.0049 33.9873 56.9871C37.0512 56.9517 39.9774 55.7421 42.1312 53.6205C44.285 51.4989 45.4928 48.6364 45.4928 45.6536C45.4928 42.6709 44.285 39.8084 42.1312 37.6868C39.9774 35.5652 37.0512 34.3555 33.9873 34.3201ZM33.9873 49.8756C31.6543 49.8756 29.7689 47.9238 29.7689 45.6528C29.7689 43.3818 31.6609 41.4316 33.9873 41.4316C36.3203 41.4316 38.2074 43.3818 38.2074 45.6528C38.2074 47.9238 36.3219 49.8756 33.9873 49.8756ZM24.0766 34.858H16.0053L12.5296 42.1865L8.53581 34.858H0.544922L8.67189 49.1256L2.95046 59.336H11.043L24.0766 34.858ZM112.957 34.3201C111.416 34.3023 109.887 34.5823 108.459 35.1439C107.03 35.7055 105.73 36.5375 104.634 37.5917C103.538 38.6458 102.668 39.9012 102.074 41.2851C101.481 42.669 101.175 44.1539 101.175 45.6536C101.175 47.1534 101.481 48.6382 102.074 50.0221C102.668 51.406 103.538 52.6614 104.634 53.7156C105.73 54.7697 107.03 55.6017 108.459 56.1633C109.887 56.7249 111.416 57.0049 112.957 56.9871C116.021 56.9517 118.947 55.7421 121.101 53.6205C123.254 51.4989 124.462 48.6364 124.462 45.6536C124.462 42.6709 123.254 39.8084 121.101 37.6868C118.947 35.5652 116.021 34.3555 112.957 34.3201ZM112.957 49.8756C110.624 49.8756 108.738 47.9238 108.738 45.6528C108.738 43.3818 110.63 41.4316 112.957 41.4316C115.285 41.4316 117.177 43.3818 117.177 45.6528C117.182 47.9238 115.291 49.8756 112.957 49.8756ZM61.5718 34.8963V46.995C61.5462 47.7436 61.2227 48.4533 60.6696 48.9741C60.1165 49.4949 59.3771 49.786 58.6076 49.786C57.838 49.786 57.0987 49.4949 56.5456 48.9741C55.9924 48.4533 55.6689 47.7436 55.6434 46.995V34.8963H48.2165V47.7403C48.2165 53.3787 52.5791 56.9871 58.3174 56.9871H58.8863C64.6245 56.9871 68.9888 53.3803 68.9888 47.7403V34.8963H61.5718ZM87.2675 34.8963H77.8683V56.4541H87.379C94.3108 56.4541 99.1391 51.6296 99.1391 45.6752V45.3975C99.144 39.4447 94.1059 34.8963 87.2675 34.8963ZM91.8729 45.6752C91.8729 47.8648 90.2924 49.5868 87.6299 49.6634C86.2363 49.7065 84.9788 49.6634 84.9788 49.6634V41.6869C84.9788 41.6869 86.1002 41.6438 87.6299 41.6869C90.3482 41.7635 91.8712 43.4855 91.8712 45.6768L91.8729 45.6752Z" fill="black"/>
</g>
</svg>
