<svg width="400" height="360" viewBox="0 0 400 360" fill="none" xmlns="http://www.w3.org/2000/svg">
<mask id="mask0_950_469" style="mask-type:alpha" maskUnits="userSpaceOnUse" x="112" y="163" width="171" height="57">
<path d="M112.825 163.215H282.957V219.569H112.825V163.215Z" fill="white"/>
</mask>
<g mask="url(#mask0_950_469)">
<path d="M249.235 207.378C268.151 207.378 279.261 200.248 279.261 200.248L279.252 210.745C279.252 210.745 268.478 219.49 249.242 219.49H249.235C229.999 219.49 219.225 210.745 219.225 210.745L219.216 200.248C219.216 200.248 230.319 207.376 249.235 207.376V207.378Z" fill="white"/>
<path d="M159.233 163.65C157.129 163.625 155.042 164.008 153.091 164.774C151.14 165.541 149.366 166.677 147.869 168.116C146.373 169.556 145.185 171.27 144.374 173.16C143.563 175.049 143.146 177.077 143.146 179.124C143.146 181.172 143.563 183.2 144.374 185.089C145.185 186.979 146.373 188.693 147.869 190.132C149.366 191.572 151.14 192.708 153.091 193.474C155.042 194.241 157.129 194.623 159.233 194.599C163.416 194.551 167.412 192.899 170.352 190.002C173.293 187.106 174.942 183.197 174.942 179.124C174.942 175.052 173.293 171.143 170.352 168.246C167.412 165.35 163.416 163.698 159.233 163.65ZM159.233 184.889C156.047 184.889 153.473 182.224 153.473 179.123C153.473 176.022 156.056 173.36 159.233 173.36C162.418 173.36 164.995 176.022 164.995 179.123C164.995 182.224 162.421 184.889 159.233 184.889ZM145.701 164.384H134.68L129.934 174.39L124.481 164.384H113.57L124.667 183.865L116.855 197.806H127.904L145.701 164.384ZM267.058 163.65C264.955 163.625 262.867 164.008 260.917 164.774C258.966 165.541 257.191 166.677 255.695 168.116C254.198 169.556 253.01 171.27 252.2 173.16C251.389 175.049 250.971 177.077 250.971 179.124C250.971 181.172 251.389 183.2 252.2 185.089C253.01 186.979 254.198 188.693 255.695 190.132C257.191 191.572 258.966 192.708 260.917 193.474C262.867 194.241 264.955 194.623 267.058 194.599C271.242 194.551 275.237 192.899 278.178 190.002C281.119 187.106 282.768 183.197 282.768 179.124C282.768 175.052 281.119 171.143 278.178 168.246C275.237 165.35 271.242 163.698 267.058 163.65ZM267.058 184.889C263.873 184.889 261.298 182.224 261.298 179.123C261.298 176.022 263.882 173.36 267.058 173.36C270.237 173.36 272.82 176.022 272.82 179.123C272.827 182.224 270.246 184.889 267.058 184.889ZM196.897 164.436V180.956C196.862 181.978 196.42 182.947 195.665 183.658C194.91 184.369 193.9 184.767 192.849 184.767C191.799 184.767 190.789 184.369 190.034 183.658C189.279 182.947 188.837 181.978 188.802 180.956V164.436H178.661V181.974C178.661 189.672 184.618 194.599 192.453 194.599H193.23C201.065 194.599 207.024 189.674 207.024 181.974V164.436H196.897ZM231.982 164.436H219.148V193.871H232.134C241.599 193.871 248.192 187.284 248.192 179.154V178.775C248.198 170.647 241.319 164.436 231.982 164.436ZM238.27 179.154C238.27 182.143 236.112 184.495 232.477 184.599C230.574 184.658 228.857 184.599 228.857 184.599V173.708C228.857 173.708 230.388 173.649 232.477 173.708C236.188 173.813 238.268 176.164 238.268 179.156L238.27 179.154Z" fill="white"/>
</g>
</svg>
