<svg width="400" height="360" viewBox="0 0 400 360" fill="none" xmlns="http://www.w3.org/2000/svg">
<path d="M199.08 140.89H191.04L185.22 177.67H192.61L199.08 140.89Z" fill="white"/>
<path d="M80.8604 159.67C80.8604 152.3 83.5304 146.76 89.6304 146.76C96.3804 146.76 97.9804 152.51 97.9804 159.04V162.47H105.68V159.48C105.68 149.23 102.26 139.87 89.3204 139.87C79.3704 139.87 73.1504 147.49 73.1504 159.83V177.68H80.8604V159.67Z" fill="white"/>
<path d="M73.1496 200.27C72.9496 210.93 76.4596 221.29 89.2396 221.29C103.02 221.29 106.04 210.64 106.04 200.31V195H98.2996V200.79C98.2996 208.63 96.5096 214.44 89.9096 214.44C83.6396 214.44 80.8696 209.32 80.8696 200.7V187.04H73.1596V200.27H73.1496Z" fill="white"/>
<path d="M135.2 148.64L139.76 177.67H146.93L140.6 140.89H129.81L123.74 177.67H130.99L135.2 148.64Z" fill="white"/>
<path d="M116.72 220.25H124.35L128.58 193.96H142.21L146.33 220.25H154.25L148.54 187.04H122.2L116.72 220.25Z" fill="white"/>
<path d="M251.01 220.25H258.65L262.88 193.96H276.5L280.63 220.25H288.54L282.83 187.04H256.49L251.01 220.25Z" fill="white"/>
<path d="M269.49 148.64L274.06 177.67H281.22L274.9 140.89H264.11L258.04 177.67H265.28L269.49 148.64Z" fill="white"/>
<path d="M169.9 140.89H161.74L168.15 177.67H175.77L169.9 140.89Z" fill="white"/>
<path d="M318.1 187.04H310.55V220.25H318.1V187.04Z" fill="white"/>
<path d="M180.51 207.42L177.26 187.04H169.78L175.56 220.25H185.12L190.96 187.04H183.74L180.51 207.42Z" fill="white"/>
<path d="M218.1 147.88H237.01V140.89H210.55V177.67H218.1V147.88Z" fill="white"/>
<path d="M210.55 220.25H238.35L238.33 213.31H218.1V187.04H210.55V220.25Z" fill="white"/>
<path d="M330.86 147.88V140.89H297.69V147.88H310.55V177.67H318.1V147.88H330.86Z" fill="white"/>
</svg>
