<svg width="210" height="80" viewBox="0 0 210 80" fill="none" xmlns="http://www.w3.org/2000/svg">
<path d="M0 33.4814H5.08326V40.1992L9.95825 33.4814H16.0616L7.96067 41.6972L23.1424 33.4814V39.1907L9.818 44.0645L23.1424 42.9505V48.3812L9.818 47.2672L23.1424 52.141V57.8502L7.96067 49.6345L16.0616 57.8502H9.95825L5.08326 51.1325V57.8502H0V33.4814Z" fill="black"/>
<path d="M26.2314 33.4814H32.4028V57.8502H26.2314V33.4814Z" fill="black"/>
<path d="M46.4919 57.8502L40.0062 42.845L40.7413 57.8502H35.4795V33.4814H41.1962L47.682 48.453L46.9466 33.4814H52.2084V57.8502H46.4919Z" fill="black"/>
<path d="M54.5254 45.6718C54.5254 38.7092 57.9977 33 64.135 33C70.2724 33 73.7449 38.7092 73.7449 45.6718C73.7449 52.6343 70.2724 58.3436 64.135 58.3436C57.9977 58.3436 54.5254 52.6343 54.5254 45.6718ZM64.135 54.4445C65.8903 54.4445 67.1869 51.1363 67.1869 45.6718C67.1869 40.2072 65.8903 36.899 64.135 36.899C62.3798 36.899 61.0835 40.2072 61.0835 45.6718C61.0835 51.1363 62.3841 54.4445 64.135 54.4445Z" fill="black"/>
<path d="M92.2573 41.3509C92.2573 46.5749 88.5386 49.5329 83.2809 49.5329H82.1588V57.8542H76.0557V33.4854H83.2809C88.5386 33.4811 92.2573 35.8146 92.2573 41.3509ZM82.1547 37.5912V45.5622H82.8898C84.6454 45.5622 86.1498 44.2034 86.1498 41.3509C86.1498 38.4984 84.641 37.5912 82.8898 37.5912H82.1547Z" fill="black"/>
<path d="M93.5518 45.6718C93.5518 38.7092 97.0243 33 103.162 33C109.299 33 112.771 38.7092 112.771 45.6718C112.771 52.6343 109.299 58.3436 103.162 58.3436C97.0199 58.3436 93.5518 52.6343 93.5518 45.6718ZM103.157 54.4445C104.913 54.4445 106.209 51.1363 106.209 45.6718C106.209 40.2072 104.913 36.899 103.157 36.899C101.402 36.899 100.106 40.2072 100.106 45.6718C100.106 51.1363 101.406 54.4445 103.157 54.4445Z" fill="black"/>
<path d="M115.079 33.4814H121.25V57.8502H115.079V33.4814Z" fill="black"/>
<path d="M130.052 47.8998C125.457 45.081 123.74 43.237 123.74 40.068C123.74 35.8567 126.792 33 131.386 33C135.666 33 138.539 35.055 139.381 38.8147L139.521 39.4435L133.877 40.4182C133.562 37.9455 132.682 36.7977 131.352 36.7977C130.158 36.7977 129.423 37.5995 129.423 38.8527C129.423 40.0722 130.018 41.1145 133.384 43.102C138.012 45.8532 139.487 47.6297 139.487 50.9717C139.487 55.4615 136.329 58.352 131.492 58.352C127.285 58.352 124.059 56.4362 123.217 52.4318L123.077 51.7692L128.9 50.689C129.214 53.301 130.128 54.5542 131.671 54.5542C132.687 54.5542 133.635 53.7188 133.635 52.2208C133.626 50.5793 132.542 49.4315 130.052 47.8998Z" fill="black"/>
<path d="M141.551 33.4814H147.722V43.613L152.036 33.4814H158.348L151.649 45.284L158.522 57.8502H151.683L147.722 47.7188V57.8502H141.551V33.4814Z" fill="black"/>
</svg>
